<svg width="472" height="532" viewBox="0 0 472 532" fill="none" xmlns="http://www.w3.org/2000/svg">
<path fill-rule="evenodd" clip-rule="evenodd" d="M236 0.895729L238.047 2.80716L471.008 220.307L466.914 224.693L442 201.433V529V532H439H33H30V529V201.433L5.08649 224.693L0.991878 220.307L233.953 2.80716L236 0.895729ZM236 9.10427L436 195.831V526H372V523V317V311H370.945L371.1 310.75H364.043H107.957H100.9L101.055 311H101V317V523V526H36V195.831L236 9.10427ZM107 320.604V521.011L169.027 420.808L107 320.604ZM172.556 426.508L112.825 523H232.286L172.556 426.508ZM235.062 516.085L176.084 420.808L235.981 324.046L235.062 516.085ZM241.039 520.86L241.029 523H361.175L300.444 424.892L241.039 520.86ZM296.916 419.192L241.094 509.371L241.95 330.397L296.916 419.192ZM303.973 419.192L366 519.396V318.989L303.973 419.192ZM360.175 317L300.444 413.492L242.004 319.085L242.014 317H360.175ZM111.825 317H233.286L172.556 415.108L111.825 317ZM215 201V108H257V201H215ZM209 102H215H257H263V108V201V207H257H215H209V201V108V102Z" fill="white"/>
</svg>
